<svg xmlns="http://www.w3.org/2000/svg" width="520" height="220" viewBox="0 0 520 220" fill="none">
  <defs><pattern id="l" width="30" height="30" patternUnits="userSpaceOnUse"><rect width="30" height="30" fill="#111827" opacity=".038"/><path d="M-4 9C8 5 17 15 34 8M-5 24C9 17 20 30 35 21M8-3C15 8 3 18 14 33M24-4C31 8 21 17 29 35" stroke="#60A5FA" stroke-width=".9" opacity=".17"/></pattern><linearGradient id="a" x1="48" y1="174" x2="460" y2="24" gradientUnits="userSpaceOnUse"><stop stop-color="#0F766E" stop-opacity=".06"/><stop offset="1" stop-color="#60A5FA" stop-opacity=".5"/></linearGradient></defs>
  <rect width="520" height="220" fill="transparent"/><circle cx="424" cy="86" r="116" fill="#60A5FA" opacity=".052"/><rect x="292" y="20" width="202" height="148" rx="28" fill="url(#l)"/>
  <path d="M78 159c58-43 95-20 141-65 40-39 79-19 133-46 31-15 59-13 99-24" stroke="url(#a)" stroke-width="3" stroke-linecap="round"/>
  <g stroke="#0F766E" stroke-width="1.5" opacity=".28"><path d="M318 64l47 28 51-40"/><path d="M365 92l63 34 44-44"/><path d="M318 64l110 62"/></g>
  <g fill="#0F766E" opacity=".36"><circle cx="318" cy="64" r="4"/><circle cx="365" cy="92" r="4"/><circle cx="416" cy="52" r="4"/><circle cx="428" cy="126" r="4"/><circle cx="472" cy="82" r="4"/></g>
</svg>
